<svg width="250" height="40" viewBox="0 0 250 40" fill="none" xmlns="http://www.w3.org/2000/svg">
<rect width="250" height="40" rx="20" fill="#EFEFEF"/>
<g clip-path="url(#clip0)">
<path d="M39.7122 27.9343L35.1826 23.5835C36.296 22.205 36.9605 20.4767 36.9605 18.6007C36.9605 14.1087 33.1563 10.4545 28.4796 10.4545C23.8042 10.4543 20 14.1084 20 18.6007C20 23.0929 23.8042 26.7474 28.4799 26.7474C30.4968 26.7474 32.3506 26.0666 33.8079 24.933L38.322 29.2689C38.513 29.4534 38.7653 29.5457 39.0166 29.5457C39.2689 29.5457 39.5202 29.4534 39.7122 29.2689C40.096 28.8997 40.096 28.3033 39.7122 27.9343ZM21.9663 18.6007C21.9663 15.1506 24.8886 12.3441 28.4799 12.3441C32.0722 12.3441 34.9945 15.1506 34.9945 18.6007C34.9945 22.0508 32.0722 24.8591 28.4799 24.8591C24.8886 24.8591 21.9663 22.0506 21.9663 18.6007Z" fill="#BDBDBD"/>
</g>
<defs>
<clipPath id="clip0">
<rect width="20" height="20" fill="white" transform="translate(20 10)"/>
</clipPath>
</defs>
</svg>
