<svg width="197" height="108" viewBox="0 0 197 108" fill="none" xmlns="http://www.w3.org/2000/svg">
<g filter="url(#filter0_dd)">
<path d="M43.8489 73.9838C36.5297 73.9838 30.837 79.6748 30.837 86.9918C30.837 94.3089 36.5297 100 43.8489 100C51.1681 100 56.8609 94.3089 56.8609 86.9918C56.8609 79.6748 51.1681 73.9838 43.8489 73.9838ZM121.107 0H114.601V15.8536H138.999L121.107 0ZM4.81317 89.4309H21.0781C21.0781 89.4309 21.8913 65.0406 45.4754 65.0406C62.9601 65.0406 65.8065 89.4309 65.8065 89.4309H106.469V0H4L4.81317 89.4309ZM158.516 73.9838C151.197 73.9838 145.504 79.6748 145.504 86.9918C145.504 94.3089 151.197 100 158.516 100C165.836 100 171.528 94.3089 171.528 86.9918C171.528 79.6748 165.429 73.9838 158.516 73.9838ZM143.065 20.3252H114.601V89.4309H138.999C138.999 89.4309 135.746 69.1057 159.33 69.1057C177.221 69.1057 176.814 89.4309 176.814 89.4309H191.859L192.673 58.9431L143.065 20.3252ZM138.999 73.1707H122.734V65.0406H138.999V73.1707ZM137.372 58.5365L121.107 48.7805V26.0162H137.372L179.661 58.5365H137.372Z" fill="white" fill-opacity="0.4"/>
</g>
<defs>
<filter id="filter0_dd" x="0" y="0" width="196.673" height="108" filterUnits="userSpaceOnUse" color-interpolation-filters="sRGB">
<feFlood flood-opacity="0" result="BackgroundImageFix"/>
<feColorMatrix in="SourceAlpha" type="matrix" values="0 0 0 0 0 0 0 0 0 0 0 0 0 0 0 0 0 0 127 0"/>
<feOffset dy="4"/>
<feGaussianBlur stdDeviation="2"/>
<feColorMatrix type="matrix" values="0 0 0 0 0 0 0 0 0 0 0 0 0 0 0 0 0 0 0.25 0"/>
<feBlend mode="normal" in2="BackgroundImageFix" result="effect1_dropShadow"/>
<feColorMatrix in="SourceAlpha" type="matrix" values="0 0 0 0 0 0 0 0 0 0 0 0 0 0 0 0 0 0 127 0"/>
<feOffset dy="4"/>
<feGaussianBlur stdDeviation="2"/>
<feColorMatrix type="matrix" values="0 0 0 0 0 0 0 0 0 0 0 0 0 0 0 0 0 0 0.25 0"/>
<feBlend mode="normal" in2="effect1_dropShadow" result="effect2_dropShadow"/>
<feBlend mode="normal" in="SourceGraphic" in2="effect2_dropShadow" result="shape"/>
</filter>
</defs>
</svg>
